<svg width="57" height="56" viewBox="0 0 57 56" fill="none" xmlns="http://www.w3.org/2000/svg">
<path d="M39 49H18C17.5359 49 17.0908 48.8156 16.7626 48.4874C16.4344 48.1592 16.25 47.7141 16.25 47.25V8.75C16.25 8.28587 16.4344 7.84075 16.7626 7.51256C17.0908 7.18437 17.5359 7 18 7H39C39.4641 7 39.9093 7.18437 40.2374 7.51256C40.5656 7.84075 40.75 8.28587 40.75 8.75V47.25C40.75 47.7141 40.5656 48.1592 40.2374 48.4874C39.9093 48.8156 39.4641 49 39 49ZM19.75 45.5H37.25V10.5H19.75V45.5Z" fill="#383838"/>
<path d="M28.5 26.25C29.8845 26.25 31.2379 25.8395 32.389 25.0703C33.5401 24.3011 34.4373 23.2079 34.9672 21.9288C35.497 20.6497 35.6356 19.2422 35.3655 17.8844C35.0954 16.5265 34.4287 15.2792 33.4498 14.3003C32.4708 13.3213 31.2235 12.6546 29.8656 12.3845C28.5078 12.1144 27.1003 12.253 25.8212 12.7828C24.5421 13.3127 23.4489 14.2099 22.6797 15.361C21.9105 16.5122 21.5 17.8655 21.5 19.25C21.5 21.1065 22.2375 22.887 23.5503 24.1998C24.863 25.5125 26.6435 26.25 28.5 26.25ZM28.5 15.75C29.1922 15.75 29.8689 15.9553 30.4445 16.3399C31.0201 16.7244 31.4687 17.2711 31.7336 17.9106C31.9985 18.5502 32.0678 19.2539 31.9328 19.9328C31.7977 20.6118 31.4644 21.2354 30.9749 21.7249C30.4854 22.2144 29.8618 22.5477 29.1828 22.6828C28.5039 22.8178 27.8002 22.7485 27.1606 22.4836C26.5211 22.2187 25.9744 21.7701 25.5899 21.1945C25.2053 20.6189 25 19.9422 25 19.25C25 18.3217 25.3688 17.4315 26.0251 16.7751C26.6815 16.1188 27.5717 15.75 28.5 15.75ZM28.5 28C27.1155 28 25.7622 28.4105 24.611 29.1797C23.4599 29.9489 22.5627 31.0421 22.0328 32.3212C21.503 33.6003 21.3644 35.0078 21.6345 36.3656C21.9046 37.7235 22.5713 38.9708 23.5503 39.9498C24.5292 40.9287 25.7765 41.5954 27.1344 41.8655C28.4922 42.1356 29.8997 41.997 31.1788 41.4672C32.4579 40.9374 33.5511 40.0401 34.3203 38.889C35.0895 37.7379 35.5 36.3845 35.5 35C35.5 33.1435 34.7625 31.363 33.4498 30.0503C32.137 28.7375 30.3565 28 28.5 28ZM28.5 38.5C27.8078 38.5 27.1311 38.2947 26.5555 37.9102C25.9799 37.5256 25.5313 36.9789 25.2664 36.3394C25.0015 35.6999 24.9322 34.9961 25.0673 34.3172C25.2023 33.6383 25.5356 33.0146 26.0251 32.5251C26.5146 32.0357 27.1383 31.7023 27.8172 31.5673C28.4961 31.4322 29.1999 31.5015 29.8394 31.7664C30.4789 32.0313 31.0256 32.4799 31.4101 33.0555C31.7947 33.6311 32 34.3078 32 35C32 35.9283 31.6313 36.8185 30.9749 37.4749C30.3185 38.1313 29.4283 38.5 28.5 38.5Z" fill="#F46B5B"/>
</svg>
