<svg width="56" height="56" viewBox="0 0 56 56" fill="none" xmlns="http://www.w3.org/2000/svg">
<path d="M43.05 33.25H12.95C11.3727 33.2477 9.86061 32.6201 8.74527 31.5047C7.62993 30.3894 7.00231 28.8773 7 27.3V12.25C7 11.7859 7.18437 11.3408 7.51256 11.0126C7.84075 10.6844 8.28587 10.5 8.75 10.5H47.25C47.7141 10.5 48.1592 10.6844 48.4874 11.0126C48.8156 11.3408 49 11.7859 49 12.25V27.3C48.9977 28.8773 48.3701 30.3894 47.2547 31.5047C46.1394 32.6201 44.6273 33.2477 43.05 33.25ZM10.5 14V27.3C10.5 27.9498 10.7581 28.5729 11.2176 29.0324C11.6771 29.4919 12.3002 29.75 12.95 29.75H43.05C43.6998 29.75 44.3229 29.4919 44.7824 29.0324C45.2419 28.5729 45.5 27.9498 45.5 27.3V14H10.5Z" fill="#383838"/>
<path d="M15.75 26.25C15.75 26.7141 15.9344 27.1592 16.2626 27.4874C16.5908 27.8156 17.0359 28 17.5 28H38.5C38.9641 28 39.4092 27.8156 39.7374 27.4874C40.0656 27.1592 40.25 26.7141 40.25 26.25C40.25 25.7859 40.0656 25.3408 39.7374 25.0126C39.4092 24.6844 38.9641 24.5 38.5 24.5H17.5C17.0359 24.5 16.5908 24.6844 16.2626 25.0126C15.9344 25.3408 15.75 25.7859 15.75 26.25ZM17.5 17.5C17.5 17.0359 17.3156 16.5908 16.9874 16.2626C16.6592 15.9344 16.2141 15.75 15.75 15.75H14C13.5359 15.75 13.0908 15.9344 12.7626 16.2626C12.4344 16.5908 12.25 17.0359 12.25 17.5C12.25 17.9641 12.4344 18.4092 12.7626 18.7374C13.0908 19.0656 13.5359 19.25 14 19.25H15.75C16.2141 19.25 16.6592 19.0656 16.9874 18.7374C17.3156 18.4092 17.5 17.9641 17.5 17.5ZM21 19.25H22.75C23.2141 19.25 23.6592 19.0656 23.9874 18.7374C24.3156 18.4092 24.5 17.9641 24.5 17.5C24.5 17.0359 24.3156 16.5908 23.9874 16.2626C23.6592 15.9344 23.2141 15.75 22.75 15.75H21C20.5359 15.75 20.0908 15.9344 19.7626 16.2626C19.4344 16.5908 19.25 17.0359 19.25 17.5C19.25 17.9641 19.4344 18.4092 19.7626 18.7374C20.0908 19.0656 20.5359 19.25 21 19.25ZM18.4223 38.8203L19.0663 37.534C19.1691 37.3284 19.2304 37.1046 19.2468 36.8753C19.2631 36.6461 19.2342 36.4158 19.1615 36.1977C19.0889 35.9797 18.974 35.778 18.8234 35.6043C18.6729 35.4307 18.4896 35.2883 18.284 35.1855C18.0784 35.0827 17.8546 35.0213 17.6253 35.005C17.3961 34.9886 17.1658 35.0176 16.9477 35.0902C16.7297 35.1629 16.528 35.2778 16.3543 35.4283C16.1807 35.5789 16.0383 35.7622 15.9355 35.9677L15.2915 37.254C14.8045 38.227 14.6362 39.3286 14.8106 40.4025C14.9849 41.4765 15.493 42.4683 16.2628 43.2373C16.5131 43.4866 16.6785 43.8085 16.7354 44.1573C16.7922 44.506 16.7377 44.8638 16.5795 45.1797L15.9355 46.466C15.7278 46.8812 15.6935 47.3618 15.8402 47.8023C15.9869 48.2427 16.3026 48.6068 16.7178 48.8145C17.1329 49.0222 17.6136 49.0565 18.054 48.9098C18.4944 48.7631 18.8586 48.4474 19.0663 48.0322L19.7102 46.746C20.1972 45.773 20.3655 44.6714 20.1912 43.5975C20.0168 42.5235 19.5088 41.5317 18.739 40.7627C18.4886 40.5134 18.3233 40.1915 18.2664 39.8427C18.2095 39.494 18.2641 39.1362 18.4223 38.8203ZM25.4222 38.8203L26.0662 37.534C26.1691 37.3284 26.2304 37.1046 26.2468 36.8753C26.2631 36.6461 26.2342 36.4158 26.1615 36.1977C26.0889 35.9797 25.974 35.778 25.8234 35.6043C25.6729 35.4307 25.4896 35.2883 25.284 35.1855C25.0784 35.0827 24.8546 35.0213 24.6253 35.005C24.3961 34.9886 24.1658 35.0176 23.9477 35.0902C23.7297 35.1629 23.528 35.2778 23.3543 35.4283C23.1807 35.5789 23.0383 35.7622 22.9355 35.9677L22.2915 37.254C21.8045 38.227 21.6362 39.3286 21.8106 40.4025C21.9849 41.4765 22.493 42.4683 23.2627 43.2373C23.5131 43.4866 23.6785 43.8085 23.7354 44.1573C23.7922 44.506 23.7377 44.8638 23.5795 45.1797L22.9355 46.466C22.7278 46.8812 22.6935 47.3618 22.8402 47.8023C22.9869 48.2427 23.3026 48.6068 23.7177 48.8145C23.9233 48.9173 24.1471 48.9787 24.3764 48.995C24.6057 49.0114 24.8359 48.9824 25.054 48.9098C25.4944 48.7631 25.8586 48.4474 26.0662 48.0322L26.7102 46.746C27.1972 45.773 27.3655 44.6714 27.1912 43.5975C27.0168 42.5235 26.5088 41.5317 25.739 40.7627C25.4886 40.5134 25.3233 40.1915 25.2664 39.8427C25.2095 39.494 25.2641 39.1362 25.4222 38.8203ZM32.4222 38.8203L33.0662 37.534C33.2739 37.1188 33.3082 36.6382 33.1615 36.1977C33.0148 35.7573 32.6992 35.3932 32.284 35.1855C31.8688 34.9778 31.3882 34.9435 30.9477 35.0902C30.5073 35.2369 30.1432 35.5526 29.9355 35.9677L29.2915 37.254C28.8045 38.227 28.6362 39.3286 28.8106 40.4025C28.9849 41.4765 29.493 42.4683 30.2627 43.2373C30.5131 43.4866 30.6785 43.8085 30.7354 44.1573C30.7922 44.506 30.7377 44.8638 30.5795 45.1797L29.9355 46.466C29.8327 46.6716 29.7713 46.8954 29.755 47.1247C29.7386 47.3539 29.7676 47.5842 29.8402 47.8023C29.9129 48.0203 30.0278 48.222 30.1783 48.3957C30.3289 48.5693 30.5122 48.7117 30.7177 48.8145C31.1329 49.0222 31.6136 49.0565 32.054 48.9098C32.2721 48.8371 32.4737 48.7222 32.6474 48.5717C32.8211 48.4211 32.9634 48.2378 33.0662 48.0322L33.7102 46.746C34.1972 45.773 34.3655 44.6714 34.1912 43.5975C34.0168 42.5235 33.5088 41.5317 32.739 40.7627C32.4886 40.5134 32.3233 40.1915 32.2664 39.8427C32.2095 39.494 32.2641 39.1362 32.4222 38.8203ZM39.739 40.7627C39.4886 40.5134 39.3233 40.1915 39.2664 39.8427C39.2095 39.494 39.2641 39.1362 39.4222 38.8203L40.0662 37.534C40.1691 37.3284 40.2304 37.1046 40.2468 36.8753C40.2631 36.6461 40.2342 36.4158 40.1615 36.1977C40.0889 35.9797 39.974 35.778 39.8234 35.6043C39.6729 35.4307 39.4896 35.2883 39.284 35.1855C39.0784 35.0827 38.8546 35.0213 38.6253 35.005C38.3961 34.9886 38.1658 35.0176 37.9477 35.0902C37.7297 35.1629 37.528 35.2778 37.3543 35.4283C37.1807 35.5789 37.0383 35.7622 36.9355 35.9677L36.2915 37.254C35.8045 38.227 35.6362 39.3286 35.8106 40.4025C35.9849 41.4765 36.493 42.4683 37.2627 43.2373C37.5131 43.4866 37.6785 43.8085 37.7354 44.1573C37.7922 44.506 37.7377 44.8638 37.5795 45.1797L36.9355 46.466C36.7278 46.8812 36.6935 47.3618 36.8402 47.8023C36.9869 48.2427 37.3026 48.6068 37.7177 48.8145C38.1329 49.0222 38.6136 49.0565 39.054 48.9098C39.4944 48.7631 39.8586 48.4474 40.0662 48.0322L40.7102 46.746C41.1972 45.773 41.3655 44.6714 41.1912 43.5975C41.0168 42.5235 40.5088 41.5317 39.739 40.7627Z" fill="#F46B5B"/>
</svg>
