<svg width="105" height="37" viewBox="0 0 105 37" fill="none" xmlns="http://www.w3.org/2000/svg">
<path d="M0.984 36.5H8.76V2.9H0.984V36.5ZM35.454 36.5H44.526L32.814 21.62L43.566 10.676H34.638L23.694 21.044V0.883998H16.206V36.5H23.694V29.924L27.294 26.372L35.454 36.5ZM59.0565 36.884C67.2645 36.884 73.2165 31.364 73.2165 23.588C73.2165 15.812 67.2645 10.292 59.0565 10.292C50.8485 10.292 44.8485 15.812 44.8485 23.588C44.8485 31.364 50.8485 36.884 59.0565 36.884ZM59.0565 30.74C55.3125 30.74 52.4325 28.052 52.4325 23.588C52.4325 19.124 55.3125 16.436 59.0565 16.436C62.8005 16.436 65.6325 19.124 65.6325 23.588C65.6325 28.052 62.8005 30.74 59.0565 30.74ZM93.9176 10.292C90.4136 10.292 87.3896 11.492 85.3736 13.7V10.676H78.2216V36.5H85.7096V23.732C85.7096 18.98 88.3016 16.772 91.9016 16.772C95.2136 16.772 97.1336 18.692 97.1336 22.868V36.5H104.622V21.716C104.622 13.844 100.014 10.292 93.9176 10.292Z" fill="#383838"/>
</svg>
