<svg width="143" height="35" viewBox="0 0 143 35" fill="none" xmlns="http://www.w3.org/2000/svg">
<path d="M14.36 34.932C11.896 34.932 9.56 34.612 7.352 33.972C5.176 33.3 3.4 32.404 2.024 31.284C1.288 30.74 0.92 29.972 0.92 28.98C0.92 28.308 1.112 27.732 1.496 27.252C1.912 26.74 2.392 26.484 2.936 26.484C3.512 26.484 4.168 26.708 4.904 27.156C6.28 28.148 7.72 28.868 9.224 29.316C10.728 29.764 12.392 29.988 14.216 29.988C16.552 29.988 18.344 29.588 19.592 28.788C20.84 27.956 21.464 26.756 21.464 25.188C21.464 23.972 20.872 23.044 19.688 22.404C18.536 21.732 16.6 21.092 13.88 20.484C11.064 19.876 8.776 19.172 7.016 18.372C5.256 17.572 3.928 16.548 3.032 15.3C2.136 14.052 1.688 12.468 1.688 10.548C1.688 8.564 2.248 6.788 3.368 5.22C4.488 3.652 6.04 2.436 8.024 1.572C10.04 0.675998 12.296 0.227998 14.792 0.227998C19.368 0.227998 23.096 1.444 25.976 3.876C26.392 4.228 26.68 4.58 26.84 4.932C27.032 5.252 27.128 5.668 27.128 6.18C27.128 6.852 26.92 7.444 26.504 7.956C26.12 8.436 25.656 8.676 25.112 8.676C24.792 8.676 24.488 8.628 24.2 8.532C23.944 8.436 23.592 8.26 23.144 8.004C21.832 7.044 20.552 6.34 19.304 5.892C18.088 5.412 16.584 5.172 14.792 5.172C12.616 5.172 10.888 5.62 9.608 6.516C8.36 7.38 7.736 8.596 7.736 10.164C7.736 11.476 8.296 12.484 9.416 13.188C10.536 13.892 12.44 14.548 15.128 15.156C17.976 15.796 20.28 16.516 22.04 17.316C23.832 18.084 25.192 19.076 26.12 20.292C27.08 21.508 27.56 23.028 27.56 24.852C27.56 26.836 27 28.596 25.88 30.132C24.792 31.636 23.24 32.82 21.224 33.684C19.24 34.516 16.952 34.932 14.36 34.932ZM44.5933 30.324C46.1933 30.42 46.9933 31.14 46.9933 32.484C46.9933 33.252 46.6733 33.844 46.0333 34.26C45.4253 34.644 44.5453 34.804 43.3932 34.74L42.0973 34.644C36.7213 34.26 34.0333 31.38 34.0333 26.004V15.54H31.6333C30.7693 15.54 30.0973 15.348 29.6173 14.964C29.1692 14.58 28.9452 14.02 28.9452 13.284C28.9452 12.548 29.1692 11.988 29.6173 11.604C30.0973 11.22 30.7693 11.028 31.6333 11.028H34.0333V6.612C34.0333 5.748 34.3053 5.06 34.8493 4.548C35.3933 4.036 36.1293 3.78 37.0573 3.78C37.9533 3.78 38.6733 4.036 39.2173 4.548C39.7613 5.06 40.0333 5.748 40.0333 6.612V11.028H44.1133C44.9773 11.028 45.6333 11.22 46.0813 11.604C46.5613 11.988 46.8013 12.548 46.8013 13.284C46.8013 14.02 46.5613 14.58 46.0813 14.964C45.6333 15.348 44.9773 15.54 44.1133 15.54H40.0333V26.436C40.0333 28.804 41.1213 30.068 43.2973 30.228L44.5933 30.324ZM63.224 10.548C64.056 10.484 64.712 10.66 65.192 11.076C65.672 11.492 65.912 12.116 65.912 12.948C65.912 13.812 65.704 14.452 65.288 14.868C64.872 15.284 64.12 15.556 63.032 15.684L61.592 15.828C59.704 16.02 58.312 16.66 57.416 17.748C56.552 18.836 56.12 20.196 56.12 21.828V31.908C56.12 32.836 55.832 33.556 55.256 34.068C54.68 34.548 53.96 34.788 53.096 34.788C52.232 34.788 51.512 34.548 50.936 34.068C50.392 33.556 50.12 32.836 50.12 31.908V13.332C50.12 12.436 50.392 11.748 50.936 11.268C51.512 10.788 52.216 10.548 53.048 10.548C53.88 10.548 54.552 10.788 55.064 11.268C55.576 11.716 55.832 12.372 55.832 13.236V15.156C56.44 13.748 57.336 12.66 58.52 11.892C59.736 11.124 61.08 10.692 62.552 10.596L63.224 10.548ZM78.7303 34.884C76.3303 34.884 74.2183 34.388 72.3943 33.396C70.6023 32.404 69.2103 30.98 68.2183 29.124C67.2263 27.268 66.7303 25.108 66.7303 22.644C66.7303 20.18 67.2263 18.036 68.2183 16.212C69.2103 14.356 70.6023 12.932 72.3943 11.94C74.2183 10.948 76.3303 10.452 78.7303 10.452C81.1303 10.452 83.2263 10.948 85.0183 11.94C86.8423 12.932 88.2343 14.356 89.1943 16.212C90.1863 18.036 90.6823 20.18 90.6823 22.644C90.6823 25.108 90.1863 27.268 89.1943 29.124C88.2343 30.98 86.8423 32.404 85.0183 33.396C83.2263 34.388 81.1303 34.884 78.7303 34.884ZM78.6823 30.228C80.6343 30.228 82.1223 29.588 83.1463 28.308C84.1703 27.028 84.6823 25.14 84.6823 22.644C84.6823 20.18 84.1703 18.308 83.1463 17.028C82.1223 15.716 80.6503 15.06 78.7303 15.06C76.8103 15.06 75.3223 15.716 74.2663 17.028C73.2423 18.308 72.7303 20.18 72.7303 22.644C72.7303 25.14 73.2423 27.028 74.2663 28.308C75.2903 29.588 76.7623 30.228 78.6823 30.228ZM109.268 10.452C112.084 10.452 114.18 11.252 115.556 12.852C116.932 14.452 117.62 16.868 117.62 20.1V31.908C117.62 32.804 117.348 33.508 116.804 34.02C116.292 34.532 115.572 34.788 114.644 34.788C113.716 34.788 112.98 34.532 112.436 34.02C111.892 33.508 111.62 32.804 111.62 31.908V20.436C111.62 18.612 111.268 17.284 110.564 16.452C109.892 15.62 108.82 15.204 107.348 15.204C105.62 15.204 104.228 15.748 103.172 16.836C102.148 17.924 101.636 19.38 101.636 21.204V31.908C101.636 32.804 101.364 33.508 100.82 34.02C100.276 34.532 99.5396 34.788 98.6116 34.788C97.6836 34.788 96.9476 34.532 96.4036 34.02C95.8916 33.508 95.6356 32.804 95.6356 31.908V13.332C95.6356 12.5 95.9076 11.828 96.4516 11.316C96.9956 10.804 97.7316 10.548 98.6596 10.548C99.4916 10.548 100.164 10.804 100.676 11.316C101.22 11.796 101.492 12.436 101.492 13.236V14.532C102.292 13.22 103.364 12.212 104.708 11.508C106.052 10.804 107.572 10.452 109.268 10.452ZM132.21 34.884C128.722 34.884 125.906 34.196 123.762 32.82C122.738 32.212 122.226 31.348 122.226 30.228C122.226 29.588 122.402 29.076 122.754 28.692C123.106 28.276 123.538 28.068 124.05 28.068C124.594 28.068 125.346 28.324 126.306 28.836C127.33 29.316 128.258 29.684 129.09 29.94C129.954 30.196 131.042 30.324 132.354 30.324C133.698 30.324 134.738 30.1 135.474 29.652C136.242 29.204 136.626 28.58 136.626 27.78C136.626 27.236 136.466 26.804 136.146 26.484C135.858 26.164 135.314 25.876 134.514 25.62C133.746 25.332 132.562 25.012 130.962 24.66C128.114 24.084 126.066 23.268 124.818 22.212C123.602 21.156 122.994 19.7 122.994 17.844C122.994 16.436 123.41 15.172 124.242 14.052C125.074 12.9 126.21 12.02 127.65 11.412C129.122 10.772 130.786 10.452 132.642 10.452C133.986 10.452 135.282 10.628 136.53 10.98C137.778 11.3 138.898 11.78 139.89 12.42C140.914 13.06 141.426 13.908 141.426 14.964C141.426 15.604 141.25 16.148 140.898 16.596C140.546 17.012 140.114 17.22 139.602 17.22C139.25 17.22 138.898 17.156 138.546 17.028C138.226 16.868 137.81 16.644 137.298 16.356C136.37 15.876 135.57 15.524 134.898 15.3C134.226 15.044 133.394 14.916 132.402 14.916C131.218 14.916 130.274 15.156 129.57 15.636C128.898 16.116 128.562 16.772 128.562 17.604C128.562 18.404 128.914 19.012 129.618 19.428C130.322 19.844 131.682 20.26 133.698 20.676C135.842 21.124 137.522 21.636 138.738 22.212C139.954 22.788 140.818 23.508 141.33 24.372C141.874 25.236 142.146 26.34 142.146 27.684C142.146 29.86 141.234 31.604 139.41 32.916C137.618 34.228 135.218 34.884 132.21 34.884Z" fill="#383838"/>
</svg>
