<svg width="138" height="47" viewBox="0 0 138 47" fill="none" xmlns="http://www.w3.org/2000/svg">
<path d="M27.24 0.639997V34H21.768V19.408H6.072V34H0.6V0.639997H6.072V14.944H21.768V0.639997H27.24ZM32.6198 20.656C32.6198 18 33.1638 15.648 34.2518 13.6C35.3718 11.552 36.8758 9.968 38.7638 8.848C40.6838 7.696 42.7958 7.12 45.0998 7.12C47.1798 7.12 48.9878 7.536 50.5238 8.368C52.0918 9.168 53.3398 10.176 54.2678 11.392V7.552H59.7878V34H54.2678V30.064C53.3398 31.312 52.0758 32.352 50.4758 33.184C48.8758 34.016 47.0518 34.432 45.0038 34.432C42.7318 34.432 40.6518 33.856 38.7638 32.704C36.8758 31.52 35.3718 29.888 34.2518 27.808C33.1638 25.696 32.6198 23.312 32.6198 20.656ZM54.2678 20.752C54.2678 18.928 53.8838 17.344 53.1158 16C52.3798 14.656 51.4038 13.632 50.1878 12.928C48.9718 12.224 47.6598 11.872 46.2518 11.872C44.8438 11.872 43.5318 12.224 42.3158 12.928C41.0998 13.6 40.1078 14.608 39.3398 15.952C38.6038 17.264 38.2358 18.832 38.2358 20.656C38.2358 22.48 38.6038 24.08 39.3398 25.456C40.1078 26.832 41.0998 27.888 42.3158 28.624C43.5638 29.328 44.8758 29.68 46.2518 29.68C47.6598 29.68 48.9718 29.328 50.1878 28.624C51.4038 27.92 52.3798 26.896 53.1158 25.552C53.8838 24.176 54.2678 22.576 54.2678 20.752ZM72.447 11.392C73.247 10.048 74.303 9.008 75.615 8.272C76.959 7.504 78.543 7.12 80.367 7.12V12.784H78.975C76.831 12.784 75.199 13.328 74.079 14.416C72.991 15.504 72.447 17.392 72.447 20.08V34H66.975V7.552H72.447V11.392ZM90.8689 11.44C91.7969 10.224 93.0609 9.2 94.6609 8.368C96.2609 7.536 98.0689 7.12 100.085 7.12C102.389 7.12 104.485 7.696 106.373 8.848C108.293 9.968 109.797 11.552 110.885 13.6C111.973 15.648 112.517 18 112.517 20.656C112.517 23.312 111.973 25.696 110.885 27.808C109.797 29.888 108.293 31.52 106.373 32.704C104.485 33.856 102.389 34.432 100.085 34.432C98.0689 34.432 96.2769 34.032 94.7089 33.232C93.1409 32.4 91.8609 31.376 90.8689 30.16V46.576H85.3969V7.552H90.8689V11.44ZM106.949 20.656C106.949 18.832 106.565 17.264 105.797 15.952C105.061 14.608 104.069 13.6 102.821 12.928C101.605 12.224 100.293 11.872 98.8849 11.872C97.5089 11.872 96.1969 12.224 94.9489 12.928C93.7329 13.632 92.7409 14.656 91.9729 16C91.2369 17.344 90.8689 18.928 90.8689 20.752C90.8689 22.576 91.2369 24.176 91.9729 25.552C92.7409 26.896 93.7329 27.92 94.9489 28.624C96.1969 29.328 97.5089 29.68 98.8849 29.68C100.293 29.68 101.605 29.328 102.821 28.624C104.069 27.888 105.061 26.832 105.797 25.456C106.565 24.08 106.949 22.48 106.949 20.656ZM127.528 34.432C125.448 34.432 123.576 34.064 121.912 33.328C120.28 32.56 118.984 31.536 118.024 30.256C117.064 28.944 116.552 27.488 116.488 25.888H122.152C122.248 27.008 122.776 27.952 123.736 28.72C124.728 29.456 125.96 29.824 127.432 29.824C128.968 29.824 130.152 29.536 130.984 28.96C131.848 28.352 132.28 27.584 132.28 26.656C132.28 25.664 131.8 24.928 130.84 24.448C129.912 23.968 128.424 23.44 126.376 22.864C124.392 22.32 122.776 21.792 121.528 21.28C120.28 20.768 119.192 19.984 118.264 18.928C117.368 17.872 116.92 16.48 116.92 14.752C116.92 13.344 117.336 12.064 118.168 10.912C119 9.728 120.184 8.8 121.72 8.128C123.288 7.456 125.08 7.12 127.096 7.12C130.104 7.12 132.52 7.888 134.344 9.424C136.2 10.928 137.192 12.992 137.32 15.616H131.848C131.752 14.432 131.272 13.488 130.408 12.784C129.544 12.08 128.376 11.728 126.904 11.728C125.464 11.728 124.36 12 123.592 12.544C122.824 13.088 122.44 13.808 122.44 14.704C122.44 15.408 122.696 16 123.208 16.48C123.72 16.96 124.344 17.344 125.08 17.632C125.816 17.888 126.904 18.224 128.344 18.64C130.264 19.152 131.832 19.68 133.048 20.224C134.296 20.736 135.368 21.504 136.264 22.528C137.16 23.552 137.624 24.912 137.656 26.608C137.656 28.112 137.24 29.456 136.408 30.64C135.576 31.824 134.392 32.752 132.856 33.424C131.352 34.096 129.576 34.432 127.528 34.432Z" fill="#383838"/>
</svg>
