<svg width="167" height="37" viewBox="0 0 167 37" fill="none" xmlns="http://www.w3.org/2000/svg">
<path d="M0.710938 36V34.9453L4.32031 34.7109V3.84375L0.710938 3.60938V2.55469H12.5234C15.6953 2.55469 18.4141 2.95312 20.6797 3.75C22.9453 4.54688 24.7344 5.70312 26.0469 7.21875C27.375 8.73438 28.3359 10.4922 28.9297 12.4922C29.5391 14.4922 29.8438 16.8047 29.8438 19.4297C29.8438 21.3203 29.6484 23.0859 29.2578 24.7266C28.8672 26.3516 28.2422 27.8672 27.3828 29.2734C26.5391 30.6641 25.4766 31.8594 24.1953 32.8594C22.9297 33.8438 21.3672 34.6172 19.5078 35.1797C17.6641 35.7266 15.5938 36 13.2969 36H0.710938ZM10.3203 34.4766C11.1641 34.6328 11.9297 34.7109 12.6172 34.7109C14.2109 34.7109 15.625 34.4531 16.8594 33.9375C18.1094 33.4219 19.1484 32.7109 19.9766 31.8047C20.8203 30.8828 21.5156 29.7656 22.0625 28.4531C22.6094 27.125 23 25.6875 23.2344 24.1406C23.4844 22.5938 23.6094 20.8984 23.6094 19.0547C23.6094 17.2422 23.5234 15.625 23.3516 14.2031C23.1797 12.7812 22.8516 11.3984 22.3672 10.0547C21.8984 8.71094 21.2734 7.60156 20.4922 6.72656C19.7109 5.85156 18.6797 5.15625 17.3984 4.64062C16.1172 4.10937 14.6172 3.84375 12.8984 3.84375C12.0234 3.84375 11.1641 3.92187 10.3203 4.07812V34.4766ZM33.5703 14.3438V13.3828L38.4688 12.8672L41.7734 12L42.1953 12.6797V34.8047L44.6094 35.0391V36H34.0391V35.0391L36.4531 34.8047V14.3438H33.5703ZM36.125 3.67969C36.125 3.24219 36.2031 2.83594 36.3594 2.46094C36.5312 2.08594 36.7578 1.75781 37.0391 1.47656C37.3203 1.19531 37.6484 0.976563 38.0234 0.820312C38.3984 0.664062 38.7969 0.585938 39.2188 0.585938C39.6406 0.585938 40.0391 0.671875 40.4141 0.84375C40.7891 1 41.1172 1.21875 41.3984 1.5C41.6953 1.78125 41.9219 2.10938 42.0781 2.48438C42.25 2.85938 42.3359 3.25781 42.3359 3.67969C42.3359 4.10156 42.25 4.5 42.0781 4.875C41.9219 5.25 41.7031 5.58594 41.4219 5.88281C41.1406 6.16406 40.8125 6.39063 40.4375 6.5625C40.0625 6.71875 39.6562 6.79688 39.2188 6.79688C38.7812 6.79688 38.375 6.71875 38 6.5625C37.625 6.39063 37.2969 6.16406 37.0156 5.88281C36.7344 5.60156 36.5156 5.27344 36.3594 4.89844C36.2031 4.52344 36.125 4.11719 36.125 3.67969ZM55.7891 35.5547C57.5703 35.5547 58.8828 35.2266 59.7266 34.5703C60.5859 33.9141 61.0156 33.0938 61.0156 32.1094C61.0156 31.5938 60.9297 31.1406 60.7578 30.75C60.6016 30.3438 60.3359 29.9609 59.9609 29.6016C59.6016 29.2266 59.1172 28.8516 58.5078 28.4766C57.9141 28.0859 57.1719 27.6484 56.2812 27.1641C55.5 26.7109 54.6719 26.2422 53.7969 25.7578C52.9219 25.2578 52.1094 24.6875 51.3594 24.0469C50.625 23.3906 50.0078 22.6328 49.5078 21.7734C49.0234 20.9141 48.7812 19.8828 48.7812 18.6797C48.7812 17.6172 48.9844 16.6562 49.3906 15.7969C49.7969 14.9375 50.3594 14.2109 51.0781 13.6172C51.8125 13.0078 52.6797 12.5391 53.6797 12.2109C54.6953 11.8828 55.8047 11.7188 57.0078 11.7188C57.9141 11.7188 58.8203 11.8359 59.7266 12.0703C60.6484 12.2891 61.4766 12.625 62.2109 13.0781C62.9453 13.5312 63.5391 14.0938 63.9922 14.7656C64.4453 15.4375 64.6719 16.2188 64.6719 17.1094C64.6719 17.4531 64.6094 17.7891 64.4844 18.1172C64.375 18.4453 64.2031 18.7422 63.9688 19.0078C63.7344 19.2734 63.4453 19.4922 63.1016 19.6641C62.7734 19.8203 62.3906 19.8984 61.9531 19.8984C61.0469 19.8984 60.3672 19.6484 59.9141 19.1484C59.4609 18.6484 59.2344 18.0391 59.2344 17.3203C59.2344 16.8672 59.2969 16.4844 59.4219 16.1719C59.5469 15.8438 59.7109 15.5781 59.9141 15.375C60.1328 15.1562 60.375 15 60.6406 14.9062C60.9219 14.7969 61.2031 14.7422 61.4844 14.7422H61.6953V14.6953C61.5391 14.4453 61.3125 14.2109 61.0156 13.9922C60.7188 13.7578 60.3672 13.5547 59.9609 13.3828C59.5547 13.1953 59.1016 13.0469 58.6016 12.9375C58.1016 12.8281 57.5703 12.7734 57.0078 12.7734C56.1797 12.7734 55.4766 12.8828 54.8984 13.1016C54.3203 13.3203 53.8438 13.6016 53.4688 13.9453C53.1094 14.2734 52.8438 14.6406 52.6719 15.0469C52.5 15.4531 52.4141 15.8438 52.4141 16.2188C52.4141 16.6719 52.4844 17.0625 52.625 17.3906C52.7656 17.7188 53.0078 18.0547 53.3516 18.3984C53.7109 18.7266 54.1953 19.0859 54.8047 19.4766C55.4297 19.8672 56.2109 20.3359 57.1484 20.8828C58.0547 21.3516 59.0078 21.8516 60.0078 22.3828C61.0234 22.9141 61.9531 23.5312 62.7969 24.2344C63.6406 24.9219 64.3359 25.7188 64.8828 26.625C65.4453 27.5156 65.7266 28.5625 65.7266 29.7656C65.7266 30.7812 65.5312 31.7109 65.1406 32.5547C64.7656 33.3984 64.1719 34.125 63.3594 34.7344C62.5625 35.3438 61.5391 35.8125 60.2891 36.1406C59.0547 36.4844 57.5859 36.6562 55.8828 36.6562C55.0703 36.6562 54.2031 36.5547 53.2812 36.3516C52.3594 36.1484 51.5078 35.8281 50.7266 35.3906C49.9453 34.9375 49.2969 34.3594 48.7812 33.6562C48.2656 32.9375 48.0078 32.0625 48.0078 31.0312C48.0078 30.5938 48.0781 30.1719 48.2188 29.7656C48.3594 29.3594 48.5547 29 48.8047 28.6875C49.0703 28.3594 49.3906 28.1016 49.7656 27.9141C50.1406 27.7266 50.5703 27.6328 51.0547 27.6328C51.4766 27.6328 51.8516 27.7109 52.1797 27.8672C52.5078 28.0078 52.7812 28.2031 53 28.4531C53.2344 28.6875 53.4141 28.9688 53.5391 29.2969C53.6641 29.625 53.7344 29.9766 53.75 30.3516C53.75 30.7891 53.6719 31.1797 53.5156 31.5234C53.3594 31.8516 53.1562 32.125 52.9062 32.3438C52.6562 32.5625 52.3672 32.7344 52.0391 32.8594C51.7266 32.9688 51.4141 33.0234 51.1016 33.0234C51.0391 33.0234 50.9688 33.0234 50.8906 33.0234C50.8281 33.0234 50.7656 33.0156 50.7031 33V33.0469C50.8438 33.3594 51.0547 33.6641 51.3359 33.9609C51.6172 34.2578 51.9688 34.5234 52.3906 34.7578C52.8281 34.9922 53.3281 35.1875 53.8906 35.3438C54.4688 35.4844 55.1016 35.5547 55.7891 35.5547ZM68.3047 3.44531L73.2031 2.92969L76.5078 2.0625L76.9297 2.74219V34.8047L79.3438 35.0391V36H68.7734V35.0391L71.1875 34.8047V4.35938L68.3516 4.40625L68.3047 3.44531ZM76.9297 23.7656V23.1797L86.0469 13.6875L83.4219 13.4297V12.4688H90.4297V13.4297L87.7812 13.6875L81.0547 20.8359L90.4766 34.8047L92.9141 35.0391V36H82.1797V35.0391L84.0781 34.8047L76.9297 23.7656ZM88.7422 3.60938V2.55469H101.75V3.60938L98.5625 3.84375L107.891 27.6094H107.984L116.141 3.84375L112.977 3.60938V2.55469H120.453V3.60938L117.617 3.84375L106.484 36.4688H105.43L92.2812 3.84375L88.7422 3.60938ZM118.672 30.9141C118.672 30.1484 118.789 29.4141 119.023 28.7109C119.273 27.9922 119.672 27.3047 120.219 26.6484C120.766 25.9922 121.438 25.4219 122.234 24.9375C123.031 24.4531 124.016 24.0703 125.188 23.7891C126.375 23.4922 127.688 23.3438 129.125 23.3438C129.891 23.3438 130.617 23.375 131.305 23.4375V20.2031C131.305 19.1719 131.281 18.3359 131.234 17.6953C131.203 17.0547 131.109 16.3984 130.953 15.7266C130.797 15.0391 130.57 14.5156 130.273 14.1562C129.992 13.7812 129.586 13.4766 129.055 13.2422C128.539 12.9922 127.906 12.8672 127.156 12.8672C124.875 12.8672 123.211 13.7656 122.164 15.5625V15.6562C122.43 15.6094 122.672 15.5859 122.891 15.5859C123.703 15.5859 124.344 15.8359 124.812 16.3359C125.281 16.8359 125.516 17.5547 125.516 18.4922C125.516 19.3047 125.234 19.9922 124.672 20.5547C124.109 21.1016 123.406 21.375 122.562 21.375C121.641 21.375 120.914 21.0625 120.383 20.4375C119.852 19.8125 119.586 19.0781 119.586 18.2344C119.586 16.3906 120.43 14.8516 122.117 13.6172C123.82 12.3828 125.773 11.7656 127.977 11.7656C129.539 11.7656 130.867 11.9297 131.961 12.2578C133.07 12.5859 133.953 13.0234 134.609 13.5703C135.266 14.1016 135.773 14.8359 136.133 15.7734C136.508 16.6953 136.75 17.6406 136.859 18.6094C136.984 19.5781 137.047 20.7656 137.047 22.1719V34.8047L139.461 35.0391V36H132.008L131.352 32.2969H131.305C130.539 33.7812 129.609 34.8906 128.516 35.625C127.438 36.3438 126.125 36.7031 124.578 36.7031C122.672 36.7031 121.211 36.1328 120.195 34.9922C119.18 33.8516 118.672 32.4922 118.672 30.9141ZM124.344 30.4219C124.344 31.6719 124.578 32.6875 125.047 33.4688C125.516 34.2344 126.203 34.6172 127.109 34.6172C128.172 34.6172 129.133 33.9531 129.992 32.625C130.867 31.2969 131.305 29.6719 131.305 27.75V24.5156C130.68 24.4375 130.172 24.3984 129.781 24.3984C128.969 24.3984 128.242 24.5078 127.602 24.7266C126.977 24.9453 126.477 25.2422 126.102 25.6172C125.727 25.9922 125.414 26.3906 125.164 26.8125C124.914 27.2188 124.734 27.6719 124.625 28.1719C124.516 28.6719 124.438 29.0859 124.391 29.4141C124.359 29.7422 124.344 30.0781 124.344 30.4219ZM141.875 13.3828L146.773 12.8672L150.078 12L150.5 12.6797L150.406 15.8438H150.5C152.359 13.125 154.766 11.7656 157.719 11.7656C158.281 11.7656 158.82 11.8125 159.336 11.9062C159.852 12 160.422 12.2109 161.047 12.5391C161.672 12.8672 162.211 13.2969 162.664 13.8281C163.117 14.3594 163.5 15.1172 163.812 16.1016C164.125 17.0859 164.281 18.2344 164.281 19.5469V34.8047L166.672 35.0391V36H156.125V35.0391L158.516 34.8047V18.8672C158.516 15.5391 157.445 13.875 155.305 13.875C153.898 13.875 152.742 14.5156 151.836 15.7969C150.945 17.0781 150.5 18.7578 150.5 20.8359V34.8047L152.914 35.0391V36H142.344V35.0391L144.758 34.8047V14.2969L141.922 14.3438L141.875 13.3828Z" fill="#383838"/>
</svg>
