<svg width="64" height="64" viewBox="0 0 64 64" fill="none" xmlns="http://www.w3.org/2000/svg">
<g clip-path="url(#clip0_1074_506)">
<path fill-rule="evenodd" clip-rule="evenodd" d="M22 41.9997C22 41.1656 21.482 40.4196 20.702 40.1276L4.70199 34.1276C4.08799 33.8976 3.4 33.9816 2.86 34.3556C2.322 34.7296 2 35.3436 2 35.9996V55.9998C2 56.8338 2.518 57.5798 3.298 57.8718L19.298 63.8719C19.912 64.1019 20.6 64.0179 21.14 63.6439C21.678 63.2699 22 62.6559 22 61.9999V41.9997ZM5.99999 54.6138L18 59.1139V43.3857L5.99999 38.8856V54.6138Z" fill="#F46B5B"/>
<path fill-rule="evenodd" clip-rule="evenodd" d="M19.298 40.1276C18.518 40.4196 18 41.1656 18 41.9997V61.9999C18 62.6559 18.322 63.2699 18.86 63.6439C19.4 64.0179 20.088 64.1019 20.702 63.8719L36.702 57.8718C37.482 57.5798 38 56.8338 38 55.9998V35.9996C38 35.3436 37.678 34.7296 37.14 34.3556C36.6 33.9816 35.912 33.8976 35.298 34.1276L19.298 40.1276ZM22 43.3857V59.1139L34 54.6138V38.8856L22 43.3857Z" fill="#F46B5B"/>
<path fill-rule="evenodd" clip-rule="evenodd" d="M3.29806 34.1276C2.51806 34.4196 2.00006 35.1656 2.00006 35.9996C2.00006 36.8336 2.51806 37.5796 3.29806 37.8716L19.298 43.8717C19.75 44.0417 20.25 44.0417 20.702 43.8717L36.702 37.8716C37.482 37.5796 38 36.8336 38 35.9996C38 35.1656 37.482 34.4196 36.702 34.1276L20.702 28.1275C20.25 27.9575 19.75 27.9575 19.298 28.1275L3.29806 34.1276ZM9.69605 35.9996L20 39.8636L30.304 35.9996L20 32.1355L9.69605 35.9996Z" fill="#F46B5B"/>
<path fill-rule="evenodd" clip-rule="evenodd" d="M42.1547 10.0013C45.3946 10.084 48 12.74 48 16.0001C48 17.1041 47.104 18.0001 46 18.0001C44.9306 18.0001 44.056 17.1588 44.0027 16.1027L43.9973 15.8974C43.944 14.8414 43.0693 14 42 14C40.896 14 40 14.8961 40 16.0001C40 17.1041 40.896 18.0001 42 18.0001C43.104 18.0001 44 18.8961 44 20.0001C44 21.1041 43.104 22.0001 42 22.0001C38.688 22.0001 36 19.3121 36 16.0001C36 12.688 38.688 10 42 10L42.1547 10.0013Z" fill="#F46B5B"/>
<path fill-rule="evenodd" clip-rule="evenodd" d="M42 21.9999C43.104 21.9999 44 22.8959 44 23.9999C44 25.1039 43.104 26 42 26C40.896 26 40 25.1039 40 23.9999C40 22.8959 39.104 21.9999 38 21.9999C36.896 21.9999 36 22.8959 36 23.9999C36 27.312 38.688 30 42 30C45.312 30 48 27.312 48 23.9999C48 20.6879 45.312 17.9999 42 17.9999C40.896 17.9999 40 18.8959 40 19.9999C40 21.1039 40.896 21.9999 42 21.9999Z" fill="#F46B5B"/>
<path fill-rule="evenodd" clip-rule="evenodd" d="M40 9.00003V12.0001C40 13.1041 40.896 14.0001 42 14.0001C43.104 14.0001 44 13.1041 44 12.0001V9.00003C44 7.89601 43.104 7 42 7C40.896 7 40 7.89601 40 9.00003Z" fill="#F46B5B"/>
<path fill-rule="evenodd" clip-rule="evenodd" d="M40 28V31.0001C40 32.1041 40.896 33.0001 42 33.0001C43.104 33.0001 44 32.1041 44 31.0001V28C44 26.896 43.104 26 42 26C40.896 26 40 26.896 40 28Z" fill="#F46B5B"/>
<path fill-rule="evenodd" clip-rule="evenodd" d="M32.792 36.9345L30.01 35.8904C29.81 35.8144 29.622 35.7085 29.456 35.5745C24.91 31.9064 22 26.2903 22 20.0002C22 8.96211 30.962 0 42 0C53.0379 0 61.9999 8.96211 61.9999 20.0002C61.9999 31.0384 53.0379 40.0005 42 40.0005C39.662 40.0005 37.418 39.5985 35.332 38.8605C35.086 38.7725 34.864 38.6405 34.676 38.4725C33.89 38.4485 33.16 37.9585 32.866 37.1765C32.836 37.0965 32.812 37.0145 32.792 36.9345ZM37.93 35.4764C39.23 35.8184 40.594 36.0005 42 36.0005C50.83 36.0005 57.9999 28.8304 57.9999 20.0002C57.9999 11.1701 50.83 4.00005 42 4.00005C33.17 4.00005 26 11.1701 26 20.0002C26 24.9223 28.228 29.3284 31.728 32.2624L36.702 34.1284L36.774 34.1564L36.846 34.1884L36.872 34.2024L36.93 34.2304L36.96 34.2464L36.982 34.2584L37.006 34.2724L37.036 34.2904L37.082 34.3204L37.112 34.3384L37.126 34.3484L37.14 34.3564L37.236 34.4284C37.272 34.4564 37.308 34.4864 37.34 34.5164L37.35 34.5244L37.372 34.5464L37.418 34.5904L37.44 34.6124L37.456 34.6284L37.474 34.6484L37.502 34.6784L37.534 34.7204L37.554 34.7424L37.564 34.7544L37.578 34.7704L37.646 34.8644C37.672 34.9024 37.696 34.9404 37.72 34.9784L37.724 34.9864L37.738 35.0124L37.772 35.0724L37.784 35.0984L37.796 35.1184L37.806 35.1444L37.824 35.1804L37.844 35.2264L37.856 35.2564L37.862 35.2724L37.87 35.2904L37.898 35.3744L37.906 35.3964L37.908 35.4044L37.93 35.4764Z" fill="#F46B5B"/>
</g>
<defs>
<clipPath id="clip0_1074_506">
<rect width="64" height="64" fill="white"/>
</clipPath>
</defs>
</svg>
