<svg width="56" height="56" viewBox="0 0 56 56" fill="none" xmlns="http://www.w3.org/2000/svg">
<path d="M44.856 8.75H11.144C10.0454 8.75139 8.99213 9.18843 8.21528 9.96528C7.43843 10.7421 7.00139 11.7954 7 12.894V35C7 35.4641 7.18437 35.9092 7.51256 36.2374C7.84075 36.5656 8.28587 36.75 8.75 36.75H47.25C47.7141 36.75 48.1592 36.5656 48.4874 36.2374C48.8156 35.9092 49 35.4641 49 35V12.894C48.9986 11.7954 48.5616 10.7421 47.7847 9.96528C47.0079 9.18843 45.9546 8.75139 44.856 8.75ZM45.5 33.25H10.5V12.894C10.5 12.8094 10.5167 12.7257 10.549 12.6476C10.5814 12.5694 10.6288 12.4984 10.6886 12.4386C10.7484 12.3788 10.8194 12.3314 10.8976 12.299C10.9757 12.2667 11.0594 12.25 11.144 12.25H44.856C44.9406 12.25 45.0243 12.2667 45.1024 12.299C45.1806 12.3314 45.2516 12.3788 45.3114 12.4386C45.3712 12.4984 45.4186 12.5694 45.451 12.6476C45.4833 12.7257 45.5 12.8094 45.5 12.894V33.25ZM47.25 38.5H8.75C8.28587 38.5 7.84075 38.6844 7.51256 39.0126C7.18437 39.3408 7 39.7859 7 40.25V41.804C7.00139 43.2476 7.57537 44.6318 8.59601 45.6528C9.61666 46.6737 11.0006 47.2481 12.4443 47.25H43.5557C44.9994 47.2481 46.3833 46.6737 47.404 45.6528C48.4246 44.6318 48.9986 43.2476 49 41.804V40.25C49 39.7859 48.8156 39.3408 48.4874 39.0126C48.1592 38.6844 47.7141 38.5 47.25 38.5ZM43.5557 43.75H12.4443C11.9625 43.7494 11.498 43.5701 11.1408 43.2469C10.7836 42.9236 10.559 42.4793 10.5105 42H45.4895C45.441 42.4793 45.2164 42.9236 44.8592 43.2469C44.502 43.5701 44.0375 43.7494 43.5557 43.75Z" fill="#383838"/>
<path d="M32.2245 22.75H33.25C33.7141 22.75 34.1592 22.5656 34.4874 22.2374C34.8156 21.9092 35 21.4641 35 21C35 20.5359 34.8156 20.0908 34.4874 19.7626C34.1592 19.4344 33.7141 19.25 33.25 19.25H28C27.5359 19.25 27.0908 19.4344 26.7626 19.7626C26.4344 20.0908 26.25 20.5359 26.25 21V26.25C26.25 26.7141 26.4344 27.1592 26.7626 27.4874C27.0908 27.8156 27.5359 28 28 28C28.4641 28 28.9092 27.8156 29.2374 27.4874C29.5656 27.1592 29.75 26.7141 29.75 26.25V25.2245L32.0127 27.4872C32.3428 27.806 32.7849 27.9824 33.2437 27.9784C33.7025 27.9744 34.1415 27.7904 34.4659 27.4659C34.7904 27.1415 34.9744 26.7025 34.9784 26.2437C34.9824 25.7849 34.806 25.3428 34.4873 25.0128L32.2245 22.75Z" fill="#F46B5B"/>
</svg>
