<svg width="96" height="96" viewBox="0 0 96 96" fill="none" xmlns="http://www.w3.org/2000/svg">
<path d="M50.34 69.1008H22.1537C20.1129 69.1008 18.4614 70.7522 18.4614 72.7931C18.4614 74.834 20.1129 76.4854 22.1537 76.4854H50.34C52.3809 76.4854 54.0323 74.834 54.0323 72.7931C54.0323 70.7522 52.3809 69.1008 50.34 69.1008ZM50.3436 54.1585C43.6128 54.1535 49.4353 54.1484 22.1537 54.191C20.1129 54.191 18.4614 55.8424 18.4614 57.8833C18.4614 59.9241 20.1129 61.5756 22.1537 61.5756C22.5242 61.5751 52.3665 61.5448 50.34 61.5431C52.3773 61.5431 54.0323 59.8917 54.0323 57.8544C54.0323 55.8135 52.3809 54.1585 50.3436 54.1585ZM47.5347 19.4746L24.941 19.4998C21.3677 19.5071 18.4614 22.4205 18.4614 25.9902V39.191C18.4614 42.7715 21.3713 45.6813 24.9518 45.6813H47.5419C51.1225 45.6813 54.0323 42.7715 54.0323 39.191V25.965C54.0323 22.3845 51.1189 19.4746 47.5347 19.4746ZM46.6477 38.2967H25.846V26.8845L46.6477 26.8592V38.2967Z" fill="#FAFAFA"/>
<path d="M92.3078 20.8322C92.3078 12.3443 85.94 5.3094 77.8126 4.82262C75.5407 4.67436 23.3787 4.79279 19.1395 4.79377C10.6227 4.79377 3.69238 11.7241 3.69238 20.2409V84.1856C3.69238 88.0834 6.86185 91.2529 10.7597 91.2529H61.7345C65.6323 91.2529 68.8018 88.0834 68.8018 84.1856V51.1495H85.2405C89.1383 51.1495 92.3078 47.9801 92.3078 44.0822V20.8322ZM61.4171 83.8683H11.077V20.2409C11.077 15.795 14.6936 12.1784 19.1395 12.1784C24.462 12.1737 10.6843 12.1859 63.7032 12.1387C62.2207 14.5223 61.4171 17.6721 61.4171 20.2409V47.4572V83.8683ZM84.9231 43.7649H68.8018V20.2409C68.8018 15.3016 73.074 11.9248 77.3727 12.1928C81.5337 12.4452 84.9231 16.3178 84.9231 20.8322V43.7649Z" fill="#FAFAFA"/>
</svg>
