<svg width="64" height="64" viewBox="0 0 64 64" fill="none" xmlns="http://www.w3.org/2000/svg">
<path d="M32.0002 39.6557C28.3064 39.6557 24.8314 38.2182 22.2189 35.6057C19.6064 32.9932 18.1689 29.5182 18.1689 25.8244C18.1689 22.1307 19.6064 18.6557 22.2189 16.0432C24.8314 13.4307 28.3064 11.9932 32.0002 11.9932C35.6939 11.9932 39.1689 13.4307 41.7814 16.0432C44.3939 18.6557 45.8314 22.1307 45.8314 25.8244C45.8314 29.5182 44.3939 32.9932 41.7814 35.6057C39.1689 38.2182 35.6939 39.6557 32.0002 39.6557ZM32.0002 15.1182C26.0939 15.1182 21.2939 19.9244 21.2939 25.8244C21.2939 31.7307 26.1002 36.5307 32.0002 36.5307C37.9002 36.5307 42.7064 31.7244 42.7064 25.8244C42.7064 19.9182 37.9064 15.1182 32.0002 15.1182Z" fill="#F46B5B"/>
<path d="M30.0504 31.975L24.9629 26.8875L27.1754 24.6812L30.0504 27.5562L36.8254 20.7812L39.0379 22.9875L30.0504 31.975Z" fill="#F46B5B"/>
<path d="M32.0002 49.3195C31.0064 49.3195 30.0064 49.0758 29.1002 48.5945C28.9127 48.4945 28.7314 48.382 28.5564 48.2695C28.2314 48.0508 27.9252 47.8008 27.6502 47.5195L25.2627 45.1258C24.6877 44.5508 23.9314 44.2383 23.1189 44.2383H19.7439C16.3502 44.2383 13.5877 41.4758 13.5877 38.082V34.707C13.5877 33.907 13.2627 33.132 12.7002 32.5633L10.3127 30.1758C7.9127 27.7758 7.9127 23.8695 10.3127 21.4695L12.7002 19.082C13.2627 18.5195 13.5877 17.7383 13.5877 16.9383V13.5633C13.5877 10.1695 16.3502 7.40703 19.7439 7.40703H23.1189C23.9252 7.40703 24.6877 7.09453 25.2627 6.51953L27.6502 4.13203C30.0502 1.73203 33.9564 1.73203 36.3502 4.13203L38.7377 6.51953C39.3127 7.09453 40.0689 7.40703 40.8814 7.40703H44.2564C47.6502 7.40703 50.4127 10.1695 50.4127 13.5633V16.9383C50.4127 17.7445 50.7252 18.507 51.3002 19.082L53.6877 21.4695C56.0877 23.8695 56.0877 27.7758 53.6877 30.1758L51.3002 32.5633C50.7252 33.132 50.4127 33.8945 50.4127 34.707V38.082C50.4127 41.4758 47.6502 44.2383 44.2564 44.2383H40.8814C40.0689 44.2383 39.3127 44.5508 38.7377 45.1258L36.3502 47.5133C36.0689 47.7945 35.7627 48.0445 35.4377 48.2633C35.2689 48.3758 35.0814 48.4883 34.8939 48.5883C33.9939 49.0758 32.9939 49.3195 32.0002 49.3195ZM19.7377 10.5383C18.0689 10.5383 16.7064 11.8945 16.7064 13.5695V16.9445C16.7064 18.5883 16.0689 20.132 14.9064 21.2945L12.5189 23.682C11.3377 24.8633 11.3377 26.782 12.5189 27.9633L14.9064 30.3508C16.0689 31.5133 16.7064 33.057 16.7064 34.7008V38.0758C16.7064 39.7445 18.0627 41.107 19.7377 41.107H23.1127C24.7564 41.107 26.3002 41.7445 27.4627 42.907L29.8502 45.2945C29.9877 45.432 30.1377 45.557 30.3002 45.6695C30.3877 45.7258 30.4689 45.782 30.5627 45.8258C31.4564 46.307 32.5252 46.307 33.4189 45.8258C33.5127 45.7758 33.6002 45.7258 33.6814 45.6695C33.8439 45.557 34.0002 45.432 34.1377 45.2945L36.5252 42.907C37.6877 41.7445 39.2314 41.107 40.8752 41.107H44.2502C45.9189 41.107 47.2814 39.7508 47.2814 38.0758V34.7008C47.2814 33.057 47.9189 31.5133 49.0814 30.3508L51.4689 27.9633C52.6502 26.782 52.6502 24.8633 51.4689 23.6758L49.0814 21.2883C47.9189 20.1258 47.2814 18.582 47.2814 16.9383V13.5633C47.2814 11.8945 45.9252 10.532 44.2502 10.532H40.8752C39.2314 10.532 37.6877 9.89453 36.5252 8.72578L34.1377 6.33828C33.5627 5.76328 32.8064 5.45078 31.9939 5.45078C31.1877 5.45078 30.4252 5.76328 29.8502 6.33828L27.4627 8.72578C26.3002 9.88828 24.7564 10.5258 23.1127 10.5258H19.7377V10.5383Z" fill="#F46B5B"/>
<path d="M25.425 61.682L20.6563 55.8195L13.1875 56.9508L19.3125 41.1133H23.1188C24.7625 41.1133 26.3063 41.7508 27.4688 42.9133L29.8563 45.3008C29.9938 45.4383 30.1438 45.5633 30.3063 45.6758L31.3375 46.3695L25.425 61.682ZM21.9563 52.4633L24.45 55.532L27.575 47.4445L25.2625 45.1258C24.6875 44.5508 23.9313 44.2383 23.1188 44.2383H21.4563L18.05 53.0508L21.9563 52.4633ZM38.575 61.6758L32.6563 46.3758L33.6875 45.682C33.85 45.5758 34 45.4508 34.1375 45.307L36.525 42.9195C37.6875 41.757 39.2313 41.1195 40.875 41.1195H44.6875L50.8063 56.957L43.3375 55.8258L38.575 61.6758ZM36.425 47.4445L39.55 55.532L42.0438 52.4633L45.95 53.057L42.5438 44.2445H40.8813C40.0688 44.2445 39.3125 44.557 38.7375 45.132L36.425 47.4445Z" fill="#F46B5B"/>
</svg>
