<svg width="64" height="64" viewBox="0 0 64 64" fill="none" xmlns="http://www.w3.org/2000/svg">
<path d="M53.9999 26.0004C54.0102 22.1859 53.0284 18.4342 51.151 15.1136C49.2735 11.793 46.565 9.01766 43.2911 7.0599C40.0172 5.10214 36.2906 4.02926 32.4769 3.94658C28.6632 3.86389 24.8936 4.77423 21.5379 6.58825C18.1823 8.40227 15.356 11.0576 13.3364 14.2937C11.3168 17.5298 10.1733 21.2354 10.0182 25.0468C9.86309 28.8583 10.7017 32.6445 12.4516 36.034C14.2016 39.4235 16.8028 42.2998 19.9999 44.3804V58.0004C20.0019 58.2959 20.0692 58.5872 20.1972 58.8534C20.3251 59.1197 20.5105 59.3543 20.7399 59.5404C20.9683 59.729 21.2356 59.8644 21.5227 59.9371C21.8098 60.0097 22.1094 60.0177 22.3999 59.9604L31.9999 58.0004L41.5999 60.0004H41.9999C42.5304 60.0004 43.0391 59.7897 43.4141 59.4147C43.7892 59.0396 43.9999 58.5309 43.9999 58.0004V44.4204C47.0674 42.4242 49.5883 39.6942 51.3345 36.4778C53.0806 33.2614 53.9967 29.6602 53.9999 26.0004ZM39.9999 55.5604L33.9999 54.3604V47.9004C36.0571 47.7138 38.0773 47.2356 39.9999 46.4804V55.5604ZM31.9999 44.0004C31.4695 44.0004 30.9608 44.2112 30.5857 44.5862C30.2106 44.9613 29.9999 45.47 29.9999 46.0004V54.3604L23.9999 55.5604V43.3204C24.005 43.2405 24.005 43.1604 23.9999 43.0804C24.0133 42.9474 24.0133 42.8134 23.9999 42.6804C23.9051 42.4436 23.7771 42.2214 23.6199 42.0204C23.5235 41.916 23.4162 41.8221 23.2999 41.7404C23.2434 41.6833 23.1833 41.6299 23.1199 41.5804C19.3358 39.3907 16.4781 35.8985 15.0802 31.756C13.6824 27.6134 13.8401 23.1038 15.5238 19.069C17.2075 15.0342 20.3021 11.7501 24.2299 9.82991C28.1577 7.90974 32.6501 7.48476 36.8682 8.6343C41.0864 9.78385 44.742 12.4293 47.1525 16.0768C49.563 19.7243 50.5635 24.1244 49.9673 28.4556C49.3711 32.7868 47.2189 36.7529 43.9126 39.6134C40.6062 42.474 36.3718 44.0334 31.9999 44.0004Z" fill="#F46B5B"/>
<path d="M43.0401 20.5404L37.0401 18.8804L33.6601 13.7204C33.4771 13.4482 33.23 13.2251 32.9405 13.0709C32.6511 12.9166 32.3281 12.8359 32.0001 12.8359C31.6721 12.8359 31.3491 12.9166 31.0596 13.0709C30.7701 13.2251 30.523 13.4482 30.3401 13.7204L26.9001 18.8604L20.9001 20.5204C20.5912 20.6237 20.3121 20.8008 20.0873 21.0365C19.8624 21.2722 19.6985 21.5592 19.6098 21.8726C19.5211 22.186 19.5103 22.5163 19.5783 22.8349C19.6463 23.1534 19.7911 23.4506 20.0001 23.7004L23.8401 28.5404L23.5801 34.7204C23.5587 35.0539 23.6212 35.3874 23.7619 35.6905C23.9026 35.9936 24.117 36.2567 24.3855 36.4556C24.6541 36.6545 24.9681 36.7829 25.2991 36.8292C25.63 36.8755 25.9673 36.8381 26.2801 36.7204L32.0001 34.5404L37.8001 36.6804C38.1129 36.7981 38.4501 36.8355 38.7811 36.7892C39.112 36.7429 39.4261 36.6145 39.6946 36.4156C39.9632 36.2167 40.1776 35.9536 40.3183 35.6505C40.459 35.3474 40.5215 35.0139 40.5001 34.6804L40.2401 28.5004L44.0001 23.7004C44.2031 23.4427 44.3396 23.1389 44.3975 22.816C44.4554 22.4931 44.433 22.1608 44.3322 21.8486C44.2314 21.5364 44.0553 21.2537 43.8196 21.0256C43.5838 20.7975 43.2955 20.6308 42.9801 20.5404H43.0401ZM36.6401 26.6604C36.3473 27.0363 36.1984 27.5044 36.2201 27.9804L36.3801 31.9804L32.7001 30.6204C32.2487 30.4517 31.7515 30.4517 31.3001 30.6204L27.6201 31.9804L27.7801 27.9804C27.8018 27.5044 27.6529 27.0363 27.3601 26.6604L24.9201 23.5804L28.7001 22.5204C29.1593 22.3896 29.5566 22.0987 29.8201 21.7004L32.0001 18.4404L34.1801 21.7004C34.4436 22.0987 34.8408 22.3896 35.3001 22.5204L39.0801 23.5804L36.6401 26.6604Z" fill="#F46B5B"/>
</svg>
