<svg width="56" height="56" viewBox="0 0 56 56" fill="none" xmlns="http://www.w3.org/2000/svg">
<path d="M33.2498 12.25H29.7498C29.2857 12.25 28.8406 12.4344 28.5124 12.7626C28.1842 13.0908 27.9998 13.5359 27.9998 14C27.9998 14.4641 28.1842 14.9092 28.5124 15.2374C28.8406 15.5656 29.2857 15.75 29.7498 15.75H33.2498C33.714 15.75 34.1591 15.5656 34.4873 15.2374C34.8155 14.9092 34.9998 14.4641 34.9998 14C34.9998 13.5359 34.8155 13.0908 34.4873 12.7626C34.1591 12.4344 33.714 12.25 33.2498 12.25ZM29.6098 41.335C29.5714 41.2235 29.5185 41.1176 29.4523 41.02L29.2423 40.7575C29.0749 40.5994 28.8789 40.4747 28.6648 40.39C28.2388 40.215 27.7609 40.215 27.3348 40.39C27.1228 40.4787 26.9275 40.603 26.7573 40.7575C26.4376 41.0929 26.2563 41.5367 26.2498 42C26.2526 42.1174 26.2643 42.2344 26.2848 42.35C26.3039 42.4597 26.3393 42.5658 26.3898 42.665C26.4246 42.7726 26.4779 42.8733 26.5473 42.9625C26.6173 43.0675 26.6873 43.155 26.7573 43.2425C26.9277 43.3968 27.123 43.521 27.3348 43.61C27.5444 43.7024 27.7708 43.7501 27.9998 43.7501C28.2288 43.7501 28.4553 43.7024 28.6648 43.61C28.8767 43.521 29.0719 43.3967 29.2423 43.2425C29.3123 43.155 29.3823 43.0675 29.4523 42.9625C29.5218 42.8733 29.5751 42.7726 29.6098 42.665C29.66 42.5657 29.6954 42.4596 29.7148 42.35C29.735 42.2343 29.7467 42.1174 29.7498 42C29.7458 41.8827 29.7341 41.7658 29.7148 41.65C29.6954 41.5404 29.66 41.4343 29.6098 41.335V41.335ZM25.7423 12.7575C25.4962 12.5147 25.1837 12.3502 24.8443 12.2848C24.5048 12.2194 24.1535 12.256 23.8348 12.39C23.6206 12.4744 23.4245 12.5992 23.2573 12.7575C22.9278 13.087 22.7427 13.534 22.7427 14C22.7427 14.466 22.9278 14.913 23.2573 15.2425C23.5869 15.572 24.0338 15.7572 24.4998 15.7572C24.9659 15.7572 25.4128 15.572 25.7423 15.2425C25.8123 15.155 25.8823 15.0675 25.9523 14.9625C26.0218 14.8733 26.0751 14.7726 26.1098 14.665C26.16 14.5657 26.1954 14.4596 26.2148 14.35C26.235 14.2343 26.2467 14.1174 26.2498 14C26.243 13.5367 26.0618 13.0931 25.7423 12.7575V12.7575Z" fill="#F46B5B"/>
<path d="M38.5 7H17.5C17.0359 7 16.5908 7.18437 16.2626 7.51256C15.9344 7.84075 15.75 8.28587 15.75 8.75V47.25C15.75 47.7141 15.9344 48.1592 16.2626 48.4874C16.5908 48.8156 17.0359 49 17.5 49H38.5C38.9641 49 39.4092 48.8156 39.7374 48.4874C40.0656 48.1592 40.25 47.7141 40.25 47.25V8.75C40.25 8.28587 40.0656 7.84075 39.7374 7.51256C39.4092 7.18437 38.9641 7 38.5 7V7ZM19.25 10.5H36.75V35H19.25V10.5ZM19.25 45.5V38.5H36.75V45.5H19.25Z" fill="#383838"/>
</svg>
