<svg width="57" height="56" viewBox="0 0 57 56" fill="none" xmlns="http://www.w3.org/2000/svg">
<path d="M37.25 35H35.5C35.0359 35 34.5907 35.1844 34.2626 35.5126C33.9344 35.8408 33.75 36.2859 33.75 36.75C33.75 37.2141 33.9344 37.6592 34.2626 37.9874C34.5907 38.3156 35.0359 38.5 35.5 38.5H37.25C37.7141 38.5 38.1593 38.3156 38.4874 37.9874C38.8156 37.6592 39 37.2141 39 36.75C39 36.2859 38.8156 35.8408 38.4874 35.5126C38.1593 35.1844 37.7141 35 37.25 35ZM37.25 40.25H35.5C35.0359 40.25 34.5907 40.4344 34.2626 40.7626C33.9344 41.0908 33.75 41.5359 33.75 42C33.75 42.4641 33.9344 42.9093 34.2626 43.2374C34.5907 43.5656 35.0359 43.75 35.5 43.75H37.25C37.7141 43.75 38.1593 43.5656 38.4874 43.2374C38.8156 42.9093 39 42.4641 39 42C39 41.5359 38.8156 41.0908 38.4874 40.7626C38.1593 40.4344 37.7141 40.25 37.25 40.25ZM37.25 29.75H35.5C35.0359 29.75 34.5907 29.9344 34.2626 30.2626C33.9344 30.5908 33.75 31.0359 33.75 31.5C33.75 31.9641 33.9344 32.4092 34.2626 32.7374C34.5907 33.0656 35.0359 33.25 35.5 33.25H37.25C37.7141 33.25 38.1593 33.0656 38.4874 32.7374C38.8156 32.4092 39 31.9641 39 31.5C39 31.0359 38.8156 30.5908 38.4874 30.2626C38.1593 29.9344 37.7141 29.75 37.25 29.75ZM44.25 35H42.5C42.0359 35 41.5907 35.1844 41.2626 35.5126C40.9344 35.8408 40.75 36.2859 40.75 36.75C40.75 37.2141 40.9344 37.6592 41.2626 37.9874C41.5907 38.3156 42.0359 38.5 42.5 38.5H44.25C44.7141 38.5 45.1592 38.3156 45.4874 37.9874C45.8156 37.6592 46 37.2141 46 36.75C46 36.2859 45.8156 35.8408 45.4874 35.5126C45.1592 35.1844 44.7141 35 44.25 35ZM44.25 40.25H42.5C42.0359 40.25 41.5907 40.4344 41.2626 40.7626C40.9344 41.0908 40.75 41.5359 40.75 42C40.75 42.4641 40.9344 42.9093 41.2626 43.2374C41.5907 43.5656 42.0359 43.75 42.5 43.75H44.25C44.7141 43.75 45.1592 43.5656 45.4874 43.2374C45.8156 42.9093 46 42.4641 46 42C46 41.5359 45.8156 41.0908 45.4874 40.7626C45.1592 40.4344 44.7141 40.25 44.25 40.25ZM40.75 31.5C40.75 31.9641 40.9344 32.4092 41.2626 32.7374C41.5907 33.0656 42.0359 33.25 42.5 33.25H44.25C44.7141 33.25 45.1592 33.0656 45.4874 32.7374C45.8156 32.4092 46 31.9641 46 31.5C46 31.0359 45.8156 30.5908 45.4874 30.2626C45.1592 29.9344 44.7141 29.75 44.25 29.75H42.5C42.0359 29.75 41.5907 29.9344 41.2626 30.2626C40.9344 30.5908 40.75 31.0359 40.75 31.5ZM28.5 36.75H21.5C21.0359 36.75 20.5908 36.9344 20.2626 37.2626C19.9344 37.5908 19.75 38.0359 19.75 38.5C19.75 38.9641 19.9344 39.4092 20.2626 39.7374C20.5908 40.0656 21.0359 40.25 21.5 40.25H28.5C28.9641 40.25 29.4093 40.0656 29.7374 39.7374C30.0656 39.4092 30.25 38.9641 30.25 38.5C30.25 38.0359 30.0656 37.5908 29.7374 37.2626C29.4093 36.9344 28.9641 36.75 28.5 36.75ZM16.25 36.75H14.5C14.0359 36.75 13.5908 36.9344 13.2626 37.2626C12.9344 37.5908 12.75 38.0359 12.75 38.5C12.75 38.9641 12.9344 39.4092 13.2626 39.7374C13.5908 40.0656 14.0359 40.25 14.5 40.25H16.25C16.7141 40.25 17.1592 40.0656 17.4874 39.7374C17.8156 39.4092 18 38.9641 18 38.5C18 38.0359 17.8156 37.5908 17.4874 37.2626C17.1592 36.9344 16.7141 36.75 16.25 36.75ZM42.5 28C42.5 27.5359 42.3156 27.0908 41.9874 26.7626C41.6593 26.4344 41.2141 26.25 40.75 26.25H39C38.5359 26.25 38.0907 26.4344 37.7626 26.7626C37.4344 27.0908 37.25 27.5359 37.25 28C37.25 28.4641 37.4344 28.9092 37.7626 29.2374C38.0907 29.5656 38.5359 29.75 39 29.75H40.75C41.2141 29.75 41.6593 29.5656 41.9874 29.2374C42.3156 28.9092 42.5 28.4641 42.5 28Z" fill="#F46B5B"/>
<path d="M47.75 7H9.25C8.78587 7 8.34075 7.18437 8.01256 7.51256C7.68437 7.84075 7.5 8.28587 7.5 8.75V45.5C7.5 45.9641 7.68437 46.4092 8.01256 46.7374C8.34075 47.0656 8.78587 47.25 9.25 47.25H47.75C48.2141 47.25 48.6592 47.0656 48.9874 46.7374C49.3156 46.4092 49.5 45.9641 49.5 45.5V8.75C49.5 8.28587 49.3156 7.84075 48.9874 7.51256C48.6592 7.18437 48.2141 7 47.75 7ZM11 10.5H46V21H33.75C33.2859 21 32.8407 21.1844 32.5126 21.5126C32.1844 21.8408 32 22.2859 32 22.75V31.5H11V10.5ZM11 35H32V43.75H11V35ZM46 43.75H35.5V24.5H46V43.75Z" fill="#383838"/>
</svg>
