<svg width="178" height="37" viewBox="0 0 178 37" fill="#383838" xmlns="http://www.w3.org/2000/svg">
<path d="M31.8352 13.3125C30.8636 5.25 24.7614 0.613635 16.6818 0.613635C7.46023 0.613635 0.420455 7.125 0.420455 18.5455C0.420455 29.9318 7.34091 36.4773 16.6818 36.4773C25.6307 36.4773 31.0341 30.5284 31.8352 24.1023L24.3693 24.0682C23.6705 27.8011 20.7386 29.9489 16.8011 29.9489C11.5 29.9489 7.90341 26.0114 7.90341 18.5455C7.90341 11.2841 11.4489 7.14205 16.8523 7.14205C20.892 7.14205 23.8068 9.47727 24.3693 13.3125H31.8352ZM48.821 36.5114C56.7642 36.5114 61.7074 31.0739 61.7074 23.0114C61.7074 14.8977 56.7642 9.47727 48.821 9.47727C40.8778 9.47727 35.9347 14.8977 35.9347 23.0114C35.9347 31.0739 40.8778 36.5114 48.821 36.5114ZM48.8551 30.8864C45.1903 30.8864 43.3153 27.5284 43.3153 22.9602C43.3153 18.392 45.1903 15.017 48.8551 15.017C52.4517 15.017 54.3267 18.392 54.3267 22.9602C54.3267 27.5284 52.4517 30.8864 48.8551 30.8864ZM78.2585 36.5114C85.2301 36.5114 89.6108 32.4205 89.9517 26.4034H83.0994C82.6733 29.1989 80.8324 30.767 78.3438 30.767C74.9517 30.767 72.7528 27.9205 72.7528 22.9091C72.7528 17.9659 74.9688 15.1364 78.3438 15.1364C81.0028 15.1364 82.7074 16.892 83.0994 19.5H89.9517C89.6449 13.4489 85.0597 9.47727 78.2244 9.47727C70.2812 9.47727 65.3722 14.983 65.3722 23.0114C65.3722 30.9716 70.196 36.5114 78.2585 36.5114ZM106.43 36.5114C114.374 36.5114 119.317 31.0739 119.317 23.0114C119.317 14.8977 114.374 9.47727 106.43 9.47727C98.4872 9.47727 93.544 14.8977 93.544 23.0114C93.544 31.0739 98.4872 36.5114 106.43 36.5114ZM106.464 30.8864C102.8 30.8864 100.925 27.5284 100.925 22.9602C100.925 18.392 102.8 15.017 106.464 15.017C110.061 15.017 111.936 18.392 111.936 22.9602C111.936 27.5284 110.061 30.8864 106.464 30.8864ZM135.868 36.5114C143.811 36.5114 148.754 31.0739 148.754 23.0114C148.754 14.8977 143.811 9.47727 135.868 9.47727C127.925 9.47727 122.982 14.8977 122.982 23.0114C122.982 31.0739 127.925 36.5114 135.868 36.5114ZM135.902 30.8864C132.237 30.8864 130.362 27.5284 130.362 22.9602C130.362 18.392 132.237 15.017 135.902 15.017C139.499 15.017 141.374 18.392 141.374 22.9602C141.374 27.5284 139.499 30.8864 135.902 30.8864ZM160.737 20.8636C160.754 17.4886 162.766 15.5114 165.697 15.5114C168.612 15.5114 170.368 17.4205 170.351 20.625V36H177.612V19.3295C177.612 13.2273 174.033 9.47727 168.578 9.47727C164.692 9.47727 161.879 11.3864 160.703 14.4375H160.396V9.81818H153.476V36H160.737V20.8636Z" fill="#383838"/>
</svg>
