<svg width="185" height="47" viewBox="0 0 185 47" fill="#383838" xmlns="http://www.w3.org/2000/svg">
<path d="M9.28125 2.47656C4.54688 2.47656 0.257812 5.125 0.257812 10.7969C0.257812 16.2109 4.24219 18.8125 8.8125 21.5547C13.2656 24.2266 16.2891 26.4297 16.2891 30.3203C16.2891 34.8438 13.1719 36.7188 10.0547 36.7188C3.91406 36.7188 1.71094 31.6328 1.3125 25.8203H0.210938C0.210938 32.5938 0.164062 35.3594 0.0234375 37.3281H1.125C1.3125 35.9453 1.57031 35.2188 2.17969 35.2188C2.57812 35.2188 3.04688 35.4062 3.82031 35.8984C5.20312 36.7656 6.98438 37.6797 10.3828 37.6797C15.9609 37.6797 20.5781 34.6562 20.5781 28.5625C20.5781 23.4062 16.9219 20.875 11.9297 17.7578C7.61719 15.0625 3.86719 13.3281 3.86719 8.96875C3.86719 5.66406 6.30469 3.39062 9.72656 3.39062C15.0469 3.39062 17.25 8.05469 17.6016 12.625H18.7031C18.7031 6.57812 18.7969 4.51562 18.9375 2.82812H17.8359C17.6484 4.21094 17.3906 4.9375 16.7812 4.9375C16.3359 4.9375 15.9141 4.75 15.1406 4.25781C13.8516 3.39062 12.4453 2.47656 9.28125 2.47656ZM29.7891 0.273438C28.1016 0.273438 26.7188 1.67969 26.7188 3.34375C26.7188 5.03125 28.1016 6.41406 29.7891 6.41406C31.4531 6.41406 32.8594 5.03125 32.8594 3.34375C32.8594 1.67969 31.4531 0.273438 29.7891 0.273438ZM32.2734 11.7578C30.8906 12.2266 29.1562 12.4141 27.2812 12.4141C26.3203 12.4141 25.3125 12.3672 24.3047 12.2734V13.2812C27.0938 13.2812 27.9609 14.6406 27.9609 17.5234V32.5469C27.9609 35.2188 26.9531 35.9922 24.3047 35.9922V37C25.4062 36.9531 27.9141 36.8125 30.1172 36.8125C32.3203 36.8125 34.8281 36.9531 35.9297 37V35.9922C33.2812 35.9922 32.2734 35.2188 32.2734 32.5469V11.7578ZM75.2344 19.7266C75.2344 16.7031 74.8594 14.7344 73.6641 13.4219C72.5625 12.2734 70.9219 11.6172 68.6719 11.6172C65.625 11.6172 62.3906 12.9297 60.6797 17.2891C60.4922 15.5781 60.0469 14.3359 59.2031 13.4219C58.1016 12.2734 56.4609 11.6172 54.2109 11.6172C51.1406 11.6172 47.9766 13.2344 46.3359 17.4062V11.7578C44.9531 12.2266 43.2188 12.4141 41.3438 12.4141C40.3828 12.4141 39.375 12.3672 38.3672 12.2734V13.2812C41.1562 13.2812 42.0234 14.6406 42.0234 17.5234V32.5469C42.0234 35.2188 41.0156 35.9922 38.3672 35.9922V37C39.4688 36.9531 42.0234 36.8125 44.1328 36.8125C46.2422 36.8125 48.5156 36.9531 49.5234 37V35.9922C47.2031 35.9922 46.3359 35.2188 46.3359 32.5469V21.8828C46.3359 16.9844 49.0781 13.1406 52.8281 13.1406C56.2734 13.1406 56.4609 15.6953 56.4609 18.6719V32.5469C56.4609 35.2188 55.6172 35.9922 53.2969 35.9922V37C54.3047 36.9531 56.5781 36.8125 58.6875 36.8125C60.7969 36.8125 63.3281 36.9531 64.4297 37V35.9922C61.8047 35.9922 60.7969 35.2188 60.7969 32.5469V21.8359C60.7969 16.9375 63.5391 13.1406 67.2656 13.1406C70.7344 13.1406 70.9219 15.6953 70.9219 18.6719V32.5469C70.9219 35.2188 70.0547 35.9922 67.7578 35.9922V37C68.7656 36.9531 71.0156 36.8125 73.125 36.8125C75.2344 36.8125 77.7891 36.9531 78.8906 37V35.9922C76.2422 35.9922 75.2344 35.2188 75.2344 32.5469V19.7266ZM91.9219 2.47656C87.1875 2.47656 82.8984 5.125 82.8984 10.7969C82.8984 16.2109 86.8828 18.8125 91.4531 21.5547C95.9062 24.2266 98.9297 26.4297 98.9297 30.3203C98.9297 34.8438 95.8125 36.7188 92.6953 36.7188C86.5547 36.7188 84.3516 31.6328 83.9531 25.8203H82.8516C82.8516 32.5938 82.8047 35.3594 82.6641 37.3281H83.7656C83.9531 35.9453 84.2109 35.2188 84.8203 35.2188C85.2188 35.2188 85.6875 35.4062 86.4609 35.8984C87.8438 36.7656 89.625 37.6797 93.0234 37.6797C98.6016 37.6797 103.219 34.6562 103.219 28.5625C103.219 23.4062 99.5625 20.875 94.5703 17.7578C90.2578 15.0625 86.5078 13.3281 86.5078 8.96875C86.5078 5.66406 88.9453 3.39062 92.3672 3.39062C97.6875 3.39062 99.8906 8.05469 100.242 12.625H101.344C101.344 6.57812 101.438 4.51562 101.578 2.82812H100.477C100.289 4.21094 100.031 4.9375 99.4219 4.9375C98.9766 4.9375 98.5547 4.75 97.7812 4.25781C96.4922 3.39062 95.0859 2.47656 91.9219 2.47656ZM118.711 11.6172C112.617 11.6172 107.812 15.4375 107.812 24.6719C107.812 33.8828 112.617 37.6797 118.711 37.6797C124.805 37.6797 129.609 33.8828 129.609 24.6719C129.609 15.4375 124.805 11.6172 118.711 11.6172ZM118.711 12.5781C122.367 12.5781 124.945 16.0703 124.945 24.6719C124.945 33.25 122.367 36.7188 118.711 36.7188C115.078 36.7188 112.477 33.25 112.477 24.6719C112.477 16.0703 115.078 12.5781 118.711 12.5781ZM149.391 11.6172C146.109 11.6172 142.898 13.0938 141.211 17.4062V11.7578C139.828 12.2266 138.094 12.4141 136.219 12.4141C135.258 12.4141 134.25 12.3672 133.242 12.2734V13.2812C136.031 13.2812 136.898 14.6406 136.898 17.5234V32.5469C136.898 35.2188 135.891 35.9922 133.242 35.9922V37C134.344 36.9531 136.898 36.8125 139.008 36.8125C141.117 36.8125 143.391 36.9531 144.398 37V35.9922C142.078 35.9922 141.211 35.2188 141.211 32.5469V21.8828C141.211 16.9844 143.906 13.1406 147.938 13.1406C151.406 13.1406 151.828 15.6953 151.828 18.6719V32.5469C151.828 35.2188 150.961 35.9922 148.664 35.9922V37C149.672 36.9531 151.922 36.8125 154.031 36.8125C156.141 36.8125 158.695 36.9531 159.797 37V35.9922C157.148 35.9922 156.141 35.2188 156.141 32.5469V19.7266C156.141 16.4453 155.672 14.7344 154.477 13.4219C153.375 12.2734 151.828 11.6172 149.391 11.6172ZM167.648 31.7266C166.008 31.7266 165.352 31.1875 165.352 30.1328C165.352 28.6562 167.227 27.4844 169.383 26.3359C170.438 26.6406 171.633 26.7812 172.922 26.7812C177.961 26.7812 181.805 24.4609 181.805 19.1875C181.805 15.5547 179.977 13.3281 177.188 12.2969C177.305 11.5 177.516 10.8438 177.68 10.3047C178.078 9.15625 178.5 8.38281 178.969 7.96094C179.273 9.83594 179.789 10.9844 181.523 10.9844C182.859 10.9844 183.82 9.97656 183.82 8.6875C183.82 7.28125 182.953 6.17969 181.289 6.17969C179.883 6.17969 178.781 6.8125 178.008 7.77344C177.281 8.73438 176.648 10.2344 176.32 12.0391C175.289 11.7578 174.141 11.6172 172.922 11.6172C167.883 11.6172 164.062 13.9141 164.062 19.1875C164.062 22.7734 165.82 24.9766 168.516 26.0312C163.945 28.0938 162.516 30.0391 162.516 32.1016C162.516 35.3125 165.633 35.7578 167.32 35.7578H167.484C164.438 37.1406 161.461 39.2734 161.461 41.6172C161.461 44.5469 166.266 46.0234 171.117 46.0234C180.422 46.0234 184.547 40.4453 184.547 36.1797C184.547 32.8281 181.945 31.7266 178.922 31.7266H167.648ZM172.922 12.4609C175.617 12.4609 177.305 14.0547 177.305 19.1875C177.305 24.3203 175.617 25.9141 172.922 25.9141C170.25 25.9141 168.562 24.3203 168.562 19.1875C168.562 14.0547 170.25 12.4609 172.922 12.4609ZM172.406 45.2031C169.195 45.2031 165.398 43.8672 165.398 40.6094C165.398 38.8281 166.547 36.8359 168.656 35.7578H177.586C180.516 35.7578 181.242 36.6719 181.242 38.4297C181.242 43.0469 176.438 45.2031 172.406 45.2031Z" fill="#383838"/>
</svg>
