<svg width="56" height="56" viewBox="0 0 56 56" fill="none" xmlns="http://www.w3.org/2000/svg">
<path d="M47.25 19.25H45.5V10.5C45.5 10.0359 45.3156 9.59075 44.9874 9.26256C44.6592 8.93437 44.2141 8.75 43.75 8.75H29.75C29.2859 8.75 28.8407 8.93437 28.5126 9.26256C28.1844 9.59075 28 10.0359 28 10.5V19.25H8.75C8.28587 19.25 7.84075 19.4344 7.51256 19.7626C7.18437 20.0908 7 20.5359 7 21V47.25C7 47.7141 7.18437 48.1592 7.51256 48.4874C7.84075 48.8156 8.28587 49 8.75 49H47.25C47.7141 49 48.1592 48.8156 48.4874 48.4874C48.8156 48.1592 49 47.7141 49 47.25V21C49 20.5359 48.8156 20.0908 48.4874 19.7626C48.1592 19.4344 47.7141 19.25 47.25 19.25ZM31.5 12.25H42V14H36.75C36.2859 14 35.8407 14.1844 35.5126 14.5126C35.1844 14.8408 35 15.2859 35 15.75C35 16.2141 35.1844 16.6592 35.5126 16.9874C35.8407 17.3156 36.2859 17.5 36.75 17.5H42V19.25H31.5V12.25ZM45.5 45.5H10.5V22.75H45.5V45.5Z" fill="#383838"/>
<path d="M32.375 24.5C30.4714 24.5 28.6105 25.0645 27.0276 26.1221C25.4448 27.1797 24.2112 28.6829 23.4827 30.4417C22.7542 32.2004 22.5636 34.1357 22.9349 36.0027C23.3063 37.8698 24.223 39.5848 25.5691 40.9309C26.9152 42.277 28.6302 43.1937 30.4973 43.5651C32.3643 43.9364 34.2996 43.7458 36.0583 43.0173C37.8171 42.2888 39.3203 41.0552 40.3779 39.4724C41.4355 37.8895 42 36.0286 42 34.125C41.9968 31.5733 40.9817 29.127 39.1773 27.3227C37.373 25.5183 34.9267 24.5032 32.375 24.5ZM32.375 40.25C31.1636 40.25 29.9794 39.8908 28.9721 39.2178C27.9649 38.5447 27.1798 37.5881 26.7162 36.4689C26.2527 35.3497 26.1314 34.1182 26.3677 32.9301C26.604 31.7419 27.1874 30.6506 28.044 29.794C28.9006 28.9374 29.9919 28.354 31.1801 28.1177C32.3682 27.8814 33.5997 28.0027 34.7189 28.4662C35.8381 28.9298 36.7947 29.7149 37.4678 30.7221C38.1408 31.7294 38.5 32.9136 38.5 34.125C38.5 35.7495 37.8547 37.3074 36.706 38.456C35.5574 39.6047 33.9995 40.25 32.375 40.25Z" fill="#383838"/>
<path d="M32.375 29.75C31.5097 29.75 30.6638 30.0066 29.9444 30.4873C29.2249 30.9681 28.6642 31.6513 28.333 32.4508C28.0019 33.2502 27.9153 34.1299 28.0841 34.9785C28.2529 35.8272 28.6696 36.6067 29.2814 37.2186C29.8933 37.8304 30.6728 38.2471 31.5215 38.4159C32.3701 38.5847 33.2498 38.4981 34.0492 38.167C34.8487 37.8358 35.5319 37.2751 36.0127 36.5556C36.4934 35.8362 36.75 34.9903 36.75 34.125C36.75 32.9647 36.2891 31.8519 35.4686 31.0314C34.6481 30.2109 33.5353 29.75 32.375 29.75ZM32.375 35C32.2019 35 32.0328 34.9487 31.8889 34.8525C31.745 34.7564 31.6328 34.6197 31.5666 34.4598C31.5004 34.3 31.4831 34.124 31.5168 33.9543C31.5506 33.7846 31.6339 33.6287 31.7563 33.5063C31.8787 33.3839 32.0346 33.3006 32.2043 33.2668C32.374 33.2331 32.55 33.2504 32.7098 33.3166C32.8697 33.3828 33.0064 33.495 33.1025 33.6389C33.1987 33.7828 33.25 33.9519 33.25 34.125C33.25 34.3571 33.1578 34.5796 32.9937 34.7437C32.8296 34.9078 32.6071 35 32.375 35Z" fill="#383838"/>
<path d="M15.75 14H10.5C10.0359 14 9.59075 14.1844 9.26256 14.5126C8.93437 14.8408 8.75 15.2859 8.75 15.75C8.75 16.2141 8.93437 16.6592 9.26256 16.9874C9.59075 17.3156 10.0359 17.5 10.5 17.5H15.75C16.2141 17.5 16.6592 17.3156 16.9874 16.9874C17.3156 16.6592 17.5 16.2141 17.5 15.75C17.5 15.2859 17.3156 14.8408 16.9874 14.5126C16.6592 14.1844 16.2141 14 15.75 14ZM14 24.5C13.5359 24.5 13.0908 24.6844 12.7626 25.0126C12.4344 25.3408 12.25 25.7859 12.25 26.25V28C12.25 28.4641 12.4344 28.9092 12.7626 29.2374C13.0908 29.5656 13.5359 29.75 14 29.75C14.4641 29.75 14.9092 29.5656 15.2374 29.2374C15.5656 28.9092 15.75 28.4641 15.75 28V26.25C15.75 25.7859 15.5656 25.3408 15.2374 25.0126C14.9092 24.6844 14.4641 24.5 14 24.5ZM14 31.5C13.5359 31.5 13.0908 31.6844 12.7626 32.0126C12.4344 32.3407 12.25 32.7859 12.25 33.25V40.25C12.25 40.7141 12.4344 41.1593 12.7626 41.4874C13.0908 41.8156 13.5359 42 14 42C14.4641 42 14.9092 41.8156 15.2374 41.4874C15.5656 41.1593 15.75 40.7141 15.75 40.25V33.25C15.75 32.7859 15.5656 32.3407 15.2374 32.0126C14.9092 31.6844 14.4641 31.5 14 31.5Z" fill="#F46B5B"/>
</svg>
