<svg width="29" height="22" viewBox="0 0 29 22" fill="none" xmlns="http://www.w3.org/2000/svg">
<path d="M25.5 0.5H3.5C1.57 0.5 0 2.07 0 4V7.66C0 8.49 0.67 9.16 1.5 9.16C2.52 9.16 3.34 9.99 3.34 11C3.34 12.01 2.52 12.84 1.5 12.84C0.67 12.84 0 13.51 0 14.34V18C0 19.93 1.57 21.5 3.5 21.5H25.5C27.43 21.5 29 19.93 29 18V14.34C29 13.51 28.33 12.84 27.5 12.84C26.48 12.84 25.66 12.01 25.66 11C25.66 9.99 26.49 9.16 27.5 9.16C28.33 9.16 29 8.49 29 7.66V4C29 2.07 27.43 0.5 25.5 0.5ZM26 6.39C24.06 7.02 22.66 8.85 22.66 11C22.66 13.15 24.06 14.97 26 15.61V18C26 18.28 25.78 18.5 25.5 18.5H20V14C20 13.17 19.33 12.5 18.5 12.5C17.67 12.5 17 13.17 17 14V18.5H3.5C3.22 18.5 3 18.28 3 18V15.61C4.94 14.98 6.34 13.15 6.34 11C6.34 8.85 4.94 7.03 3 6.39V4C3 3.72 3.22 3.5 3.5 3.5H17V8C17 8.83 17.67 9.5 18.5 9.5C19.33 9.5 20 8.83 20 8V3.5H25.5C25.78 3.5 26 3.72 26 4V6.39Z" fill="#FAFAFA"/>
</svg>
