<svg width="57" height="56" viewBox="0 0 57 56" fill="none" xmlns="http://www.w3.org/2000/svg">
<path d="M43.0565 45.5H41.9435C39.0577 45.5 32 43.2408 32 39.0565V35H25V39.0565C25 43.2408 17.9423 45.5 15.0565 45.5H13.9435C12.2351 45.4981 10.5973 44.8187 9.3893 43.6107C8.18131 42.4027 7.50185 40.7649 7.5 39.0565V22.75C7.5 20.8935 8.2375 19.113 9.55025 17.8003C10.863 16.4875 12.6435 15.75 14.5 15.75H42.5C44.3565 15.75 46.137 16.4875 47.4497 17.8003C48.7625 19.113 49.5 20.8935 49.5 22.75V39.0565C49.4981 40.7649 48.8187 42.4027 47.6107 43.6107C46.4027 44.8187 44.7649 45.4981 43.0565 45.5ZM23.25 31.5H33.75C34.2141 31.5 34.6593 31.6844 34.9874 32.0126C35.3156 32.3407 35.5 32.7859 35.5 33.25V39.0565C35.5 39.9105 39.3815 42 41.9435 42H43.0565C43.8369 41.9991 44.585 41.6887 45.1368 41.1368C45.6887 40.585 45.9991 39.8369 46 39.0565V22.75C46 21.8217 45.6312 20.9315 44.9749 20.2751C44.3185 19.6187 43.4283 19.25 42.5 19.25H14.5C13.5717 19.25 12.6815 19.6187 12.0251 20.2751C11.3687 20.9315 11 21.8217 11 22.75V39.0565C11.0009 39.8369 11.3113 40.585 11.8632 41.1368C12.415 41.6887 13.1631 41.9991 13.9435 42H15.0565C17.6185 42 21.5 39.9105 21.5 39.0565V33.25C21.5 32.7859 21.6844 32.3407 22.0126 32.0126C22.3408 31.6844 22.7859 31.5 23.25 31.5Z" fill="#383838"/>
<path d="M37.25 21C36.7859 21 36.3407 21.1844 36.0126 21.5126C35.6844 21.8408 35.5 22.2859 35.5 22.75V28C35.5 28.4641 35.6844 28.9092 36.0126 29.2374C36.3407 29.5656 36.7859 29.75 37.25 29.75C37.7141 29.75 38.1593 29.5656 38.4874 29.2374C38.8156 28.9092 39 28.4641 39 28V22.75C39 22.2859 38.8156 21.8408 38.4874 21.5126C38.1593 21.1844 37.7141 21 37.25 21ZM42.5 22.75C42.0359 22.75 41.5907 22.9344 41.2626 23.2626C40.9344 23.5908 40.75 24.0359 40.75 24.5V29.75C40.75 30.2141 40.9344 30.6592 41.2626 30.9874C41.5907 31.3156 42.0359 31.5 42.5 31.5C42.9641 31.5 43.4093 31.3156 43.7374 30.9874C44.0656 30.6592 44.25 30.2141 44.25 29.75V24.5C44.25 24.0359 44.0656 23.5908 43.7374 23.2626C43.4093 22.9344 42.9641 22.75 42.5 22.75ZM21.5 24.5H19.75V22.75C19.75 22.2859 19.5656 21.8408 19.2374 21.5126C18.9092 21.1844 18.4641 21 18 21C17.5359 21 17.0908 21.1844 16.7626 21.5126C16.4344 21.8408 16.25 22.2859 16.25 22.75V24.5H14.5C14.0359 24.5 13.5908 24.6844 13.2626 25.0126C12.9344 25.3408 12.75 25.7859 12.75 26.25C12.75 26.7141 12.9344 27.1592 13.2626 27.4874C13.5908 27.8156 14.0359 28 14.5 28H16.25V29.75C16.25 30.2141 16.4344 30.6592 16.7626 30.9874C17.0908 31.3156 17.5359 31.5 18 31.5C18.4641 31.5 18.9092 31.3156 19.2374 30.9874C19.5656 30.6592 19.75 30.2141 19.75 29.75V28H21.5C21.9641 28 22.4092 27.8156 22.7374 27.4874C23.0656 27.1592 23.25 26.7141 23.25 26.25C23.25 25.7859 23.0656 25.3408 22.7374 25.0126C22.4092 24.6844 21.9641 24.5 21.5 24.5Z" fill="#F46B5B"/>
</svg>
